<?xml version="1.0" encoding="UTF-8" standalone="no"?>
<!-- Created with Inkscape (http://www.inkscape.org/) -->

<svg
   version="1.1"
   id="svg1"
   width="632"
   height="632"
   viewBox="0 0 632 632"
   sodipodi:docname="ffxiv.svg"
   inkscape:version="1.3.2 (091e20ef0f, 2023-11-25)"
   xmlns:inkscape="http://www.inkscape.org/namespaces/inkscape"
   xmlns:sodipodi="http://sodipodi.sourceforge.net/DTD/sodipodi-0.dtd"
   xmlns="http://www.w3.org/2000/svg"
   xmlns:svg="http://www.w3.org/2000/svg">
  <defs
     id="defs1" />
  <sodipodi:namedview
     id="namedview1"
     pagecolor="#505050"
     bordercolor="#ffffff"
     borderopacity="1"
     inkscape:showpageshadow="0"
     inkscape:pageopacity="0"
     inkscape:pagecheckerboard="1"
     inkscape:deskcolor="#505050"
     inkscape:zoom="2.5601266"
     inkscape:cx="127.92336"
     inkscape:cy="392.16811"
     inkscape:window-width="3840"
     inkscape:window-height="2160"
     inkscape:window-x="0"
     inkscape:window-y="0"
     inkscape:window-maximized="1"
     inkscape:current-layer="g1" />
  <g
     inkscape:groupmode="layer"
     inkscape:label="Image"
     id="g1">
    <path
       style="fill:#9e2436;fill-opacity:1"
       d="m 400,581.37585 c 0,-1.11091 -9.56016,-4.20016 -18.56867,-6.00023 -3.402,-0.67979 -5.71019,-3.17905 -4.598,-4.97863 0.36156,-0.58501 -0.2666,-1.06366 -1.3959,-1.06366 -1.12931,0 -2.41644,-1.4469 -2.86029,-3.21534 -0.87029,-3.46752 -7.8233,-10.42738 -9.12085,-9.12983 -0.43429,0.43429 -0.78962,0.0896 -0.78962,-0.76594 0,-0.85555 -0.64286,-1.55555 -1.42857,-1.55555 -0.78572,0 -2.35804,-0.92947 -3.49405,-2.06548 -1.13601,-1.13601 -3.79316,-2.41101 -5.90476,-2.83333 C 349.72768,549.34554 348,548.54313 348,547.98473 c 0,-1.48151 -11.69707,-2.99777 -13.66275,-1.77108 -0.91882,0.5734 -2.75253,1.211 -4.0749,1.41691 -2.1495,0.3347 -4.89332,1.69421 -13.09523,6.48845 -1.36656,0.79879 -2.08821,1.84879 -1.60366,2.33334 0.48454,0.48454 0.14557,0.88098 -0.75326,0.88098 -0.89884,0 -1.26342,0.6 -0.8102,1.33334 C 314.45322,559.4 314.15322,560 313.33333,560 c -0.81989,0 -1.11989,0.6 -0.66666,1.33333 0.45322,0.73334 0.0886,1.33334 -0.8102,1.33334 -0.89884,0 -1.25006,0.38419 -0.78049,0.85375 1.02524,1.02524 -3.17285,8.47958 -4.77548,8.47958 -0.6185,0 -0.78042,0.5568 -0.35983,1.23734 2.9016,4.69489 -14.62263,3.91921 -22.94067,-1.01543 -3.85,-2.284 -7.00919,-3.71829 -7.02042,-3.18731 -0.0112,0.53097 -0.46123,0.3654 -1,-0.36793 -1.37661,-1.87374 -6.42676,-4.58991 -12.55229,-6.75113 -4.86108,-1.71509 -5.81279,-1.59865 -13.82389,1.69126 -4.73187,1.94324 -8.6034,4.06207 -8.6034,4.70853 0,0.64646 -0.55163,0.83446 -1.22584,0.41777 -0.67421,-0.41668 -2.02421,-0.002 -3,0.92131 -0.97579,0.92341 -2.97416,1.88889 -4.44083,2.14552 -1.46666,0.25663 -3.06966,1.11598 -3.5622,1.90967 -0.49255,0.79369 -3.78853,1.48372 -7.3244,1.5334 -5.95726,0.0837 -6.43901,-0.15419 -6.56728,-3.243 -0.35536,-8.5576 -3.32857,-19.16337 -5.87158,-20.94456 -1.47099,-1.03032 -2.67454,-2.73929 -2.67454,-3.79771 0,-1.05842 -0.64615,-1.9244 -1.43589,-1.9244 -0.78975,0 -3.2359,-1.8 -5.4359,-4 -2.2,-2.2 -4.85385,-4 -5.89744,-4 -1.04359,0 -1.89743,-0.63541 -1.89743,-1.41202 0,-0.77661 -0.6,-1.0412 -1.33334,-0.58798 C 188.6,535.78656 188,535.52197 188,534.74536 c 0,-0.77662 -0.45,-1.31677 -1,-1.20035 -1.53569,0.32507 -6.12049,-1.85201 -8.17192,-3.88042 -1.01122,-0.99987 -2.66122,-1.50228 -3.66667,-1.11645 -1.00544,0.38583 -1.82808,0.0849 -1.82808,-0.66868 0,-0.75359 -0.62628,-0.98311 -1.39174,-0.51003 -0.76545,0.47308 -2.26545,0.13502 -3.33333,-0.75124 -1.06788,-0.88626 -1.94159,-1.2168 -1.94159,-0.73454 0,0.48226 -1.25263,0.20645 -2.78362,-0.61291 -3.79128,-2.02903 -3.92928,-2.04943 -39.88305,-5.89555 -7.4948,-0.80175 -12,-3.02394 -12,-5.91901 0,-2.35986 4.3511,-5.08676 7,-4.38701 0.55,0.14529 1.00919,-0.48584 1.02042,-1.4025 0.0138,-1.12795 0.4216,-1.03229 1.2616,0.29596 1.03988,1.6443 1.39383,1.53617 2.18225,-0.66666 0.51759,-1.44612 1.76849,-3.59713 2.77979,-4.78003 3.34853,-3.91672 3.98959,-10.87229 2.35165,-25.51594 -0.47165,-4.21667 -1.43404,-7.66667 -2.13865,-7.66667 -0.70461,0 -0.91028,-0.6 -0.45706,-1.33333 0.45322,-0.73333 0.23826,-1.33333 -0.4777,-1.33333 -0.71596,0 -2.30224,-2.61977 -3.52508,-5.82171 -3.1926,-8.35973 -16.53412,-16.22172 -26.945227,-15.87849 -1.981104,0.0653 -12.385326,-9.37143 -12.385326,-11.23363 0,-0.73889 -1.636137,-3.08106 -3.635859,-5.20481 -1.999723,-2.12375 -3.649723,-4.33325 -3.666667,-4.91 -0.01694,-0.57674 -0.630808,-1.47674 -1.364141,-2 -2.950466,-2.10523 -10,-16.16794 -10,-19.94842 0,-2.11297 1.125921,-2.49347 7.666667,-2.59096 14.779294,-0.22027 15.998526,-0.43731 20.813937,-3.70513 2.669001,-1.81124 4.852729,-2.98786 4.852729,-2.61473 0,0.37313 1.313137,-0.54495 2.918087,-2.04018 1.60494,-1.49524 3.28193,-2.71861 3.72663,-2.71861 0.72456,0 5.77523,-11.14368 6.18862,-13.6544 0.0917,-0.55675 0.29166,-1.16227 0.44444,-1.3456 1.20554,-1.44664 1.92684,-27.82433 0.88416,-32.33333 -0.33916,-1.46667 -1.57597,-4.55189 -2.74847,-6.85605 -1.49875,-2.9453 -2.02516,-7.03057 -1.77264,-13.75691 0.29516,-7.86231 -0.045,-9.79432 -1.90834,-10.84003 -1.24713,-0.69989 -3.04713,-2.03174 -4,-2.95967 -0.95287,-0.92793 -3.879463,-2.99996 -6.503546,-4.6045 -2.624083,-1.60454 -5.474083,-4.46032 -6.333333,-6.34617 -1.885605,-4.13845 -1.958207,-5.03875 -0.324936,-4.02933 0.680536,0.42059 1.620968,-0.444 2.08985,-1.92132 0.468882,-1.47731 1.384807,-2.68602 2.035389,-2.68602 0.650583,0 2.590929,-1.40805 4.31188,-3.12901 1.720952,-1.72095 4.748226,-4.18995 6.727276,-5.48668 1.97905,-1.29672 3.59827,-3.22408 3.59827,-4.28302 0,-1.05893 0.6,-1.55452 1.33333,-1.10129 0.73333,0.45322 1.37924,0.0386 1.43535,-0.92131 0.0561,-0.95995 0.33999,-2.94536 0.63086,-4.41203 1.84613,-9.30901 -6.61069,-16.62817 -19.971627,-17.28492 -8.26337,-0.40619 -10.187116,-1.63143 -8.700536,-5.54143 0.682982,-1.79638 1.134424,-3.69533 1.003204,-4.2199 -0.131219,-0.52456 0.212714,-2.85513 0.764296,-5.17905 0.742149,-3.1268 0.288221,-5.62614 -1.746001,-9.61355 -3.285962,-6.44101 -3.455608,-8.93798 -0.679629,-10.00322 1.138088,-0.43673 1.770717,-0.31101 1.405843,0.27937 -0.364875,0.59038 1.103963,2.11743 3.264083,3.39344 2.160119,1.27601 3.945736,1.8361 3.968035,1.24464 0.0223,-0.59146 0.652114,-0.0254 1.399587,1.25796 C 91.520938,222.95 93.002693,224 94.066253,224 95.129814,224 96,224.63541 96,225.41202 c 0,0.77662 0.6,1.0412 1.333333,0.58798 0.733334,-0.45322 1.333334,-0.26764 1.333334,0.41242 0,3.04076 28.093073,4.6417 29.087763,1.65763 0.25729,-0.77186 1.47195,-1.40338 2.69925,-1.40338 2.35001,0 11.72356,-9.25804 11.17481,-11.0371 -0.17594,-0.57041 0.58223,-1.38328 1.68482,-1.80638 1.10259,-0.42311 1.67274,-1.30641 1.26701,-1.9629 -0.40573,-0.65649 -0.002,-1.19362 0.89655,-1.19362 0.89883,0 1.28424,-0.35 0.85646,-0.77778 C 145.4457,209.00125 150.08272,204 151.79335,204 c 0.61968,0 2.19986,1.18585 3.51153,2.63522 1.31166,1.44938 2.85341,2.34564 3.4261,1.9917 0.57269,-0.35395 1.29335,0.1102 1.60145,1.03144 0.42215,1.26224 2.17511,1.00689 7.11388,-1.03625 5.73384,-2.37205 6.55963,-3.2042 6.60117,-6.65194 0.0518,-4.30279 -3.08216,-8.97879 -5.158,-7.69586 -0.72149,0.44591 -0.87753,0.11838 -0.35014,-0.73497 C 169.0626,192.69271 168.91255,192 168.2059,192 c -0.72674,0 -1.24455,-4.72287 -1.19212,-10.87307 0.0927,-10.87307 0.0927,-10.87307 -5.12721,-15.40275 -9.61499,-8.34362 -10.91391,-9.98864 -11.6969,-14.81368 -0.99549,-6.1345 0.22057,-6.86455 11.477,-6.89008 9.06866,-0.0206 15.74782,-3.3197 13.63661,-6.73572 -0.4367,-0.70658 -0.12797,-1.2847 0.68607,-1.2847 1.22326,0 4.75224,-6.51093 5.59731,-10.32697 0.12258,-0.5535 1.02124,-1.80474 1.99702,-2.78052 0.97579,-0.97579 1.43324,-2.32579 1.01655,-3 -0.41668,-0.67422 -0.1222,-1.22584 0.65441,-1.22584 0.77662,0 1.41203,-0.6 1.41203,-1.33334 0,-0.73333 1.22188,-2.55521 2.7153,-4.04863 1.49341,-1.49341 2.37661,-3.26331 1.96265,-3.9331 -0.41395,-0.66979 0.45819,-1.86582 1.9381,-2.65785 1.47991,-0.79202 2.54671,-1.93037 2.37068,-2.52966 -0.45895,-1.56245 8.27763,-9.497423 10.45687,-9.497423 3.25071,0 6.28796,6.097873 4.60425,9.243923 -0.9841,1.83881 -1.01564,2.75608 -0.0948,2.75608 0.75914,0 1.38025,1.66649 1.38025,3.70332 0,6.58607 2.97324,9.01944 13.26857,10.85932 10.83289,1.93595 13.07728,4.17042 10.3667,10.32092 -0.91698,2.0807 -2.56005,3.9803 -3.65126,4.22131 -6.23217,1.37649 -12.99484,9.28373 -12.57675,14.70532 0.21559,2.79575 7.91481,11.00456 9.83964,10.4909 0.41421,-0.11053 2.1031,0.54762 3.7531,1.46255 1.65,0.91493 3,1.327 3,0.91569 0,-0.4113 1.72393,0.14366 3.83095,1.23325 2.10703,1.08958 4.20703,1.60499 4.66667,1.14535 0.45964,-0.45964 0.83571,-0.2531 0.83571,0.45899 0,1.03846 6.48304,1.36059 12.37441,0.61486 1.60755,-0.20349 14.27194,-13.61549 14.45015,-15.30319 0.0868,-0.82239 0.0868,-1.94526 0,-2.49526 -0.0868,-0.55 0.47752,-1 1.25413,-1 0.77662,0 1.0711,-0.55163 0.65441,-1.22584 -0.41668,-0.67421 0.14791,-2.13136 1.25465,-3.2381 1.10674,-1.10674 2.01225,-2.9197 2.01225,-4.0288 0,-1.1091 0.60979,-2.39342 1.35509,-2.85404 0.74529,-0.46061 1.00988,-1.39602 0.58797,-2.07868 -0.4219,-0.68267 -0.20669,-1.24121 0.47825,-1.24121 0.68495,0 1.70418,-1.95 2.26497,-4.33333 0.56078,-2.38333 1.09497,-4.63333 1.18708,-5 0.0921,-0.36667 0.6437,-1.41667 1.22575,-2.33333 0.58205,-0.91667 0.73281,-2.19329 0.33501,-2.83693 -0.39779,-0.64364 1.44916,-3.47368 4.10433,-6.28899 4.5101,-4.7821 5.31974,-5.11393 12.31123,-5.04586 7.63897,0.0744 8.66656,0.27477 15.26221,2.97644 2.07821,0.85126 4.32821,1.20804 5,0.79285 0.6718,-0.41519 1.22145,-0.18139 1.22145,0.51957 0,1.4494 13.13453,1.6166 14.02332,0.17851 0.31883,-0.51588 2.08656,-0.64991 3.92827,-0.29785 2.23569,0.42738 3.61267,-0.0481 4.14321,-1.43067 0.43705,-1.13893 2.54451,-2.45513 4.68325,-2.92487 2.13874,-0.46975 3.88861,-1.44182 3.88861,-2.16017 0,-0.71834 0.56313,-0.95805 1.25139,-0.53268 0.68826,0.42537 1.7922,-0.19298 2.45319,-1.37411 0.661,-1.18113 1.68248,-1.94375 2.26997,-1.69471 0.58748,0.24904 1.73355,-0.73807 2.5468,-2.193578 0.81326,-1.455508 2.53869,-3.446561 3.83429,-4.424563 1.29561,-0.978001 2.01019,-2.337131 1.58798,-3.020288 -0.42221,-0.683158 -0.13225,-1.242104 0.64436,-1.242104 0.77661,0 1.41202,-0.693366 1.41202,-1.540812 0,-0.847447 1.5,-3.507414 3.33334,-5.911038 C 374.5,80.811193 376,78.425405 376,77.913065 376,76.307188 385.4362,68 387.26033,68 c 0.95542,0 4.5127,1.551297 7.90507,3.447326 3.39236,1.89603 6.16793,3.074919 6.16793,2.619755 0,-0.455164 1.16339,-0.204943 2.58532,0.556047 C 406.86009,76.197341 420,73.963733 420,71.889515 c 0,-0.672567 1.21883,-1.222848 2.70851,-1.222848 1.48969,0 3.05256,-0.896554 3.47305,-1.992342 0.42049,-1.095788 1.27156,-1.678983 1.89126,-1.295989 0.61969,0.382994 1.78693,-0.537257 2.59385,-2.045003 0.80692,-1.507745 2.04126,-2.386521 2.74298,-1.952835 0.70172,0.433687 1.63581,-0.149508 2.07575,-1.295989 C 435.92535,60.938029 437.15652,60 438.22134,60 c 1.06482,0 1.60738,-0.531786 1.20568,-1.181747 -0.4017,-0.64996 0.59142,-1.5274 2.20694,-1.949867 1.64699,-0.430699 3.38857,-0.05801 3.96458,0.848413 0.56501,0.889094 1.03648,1.093068 1.04771,0.453275 0.0112,-0.639793 0.94257,-0.397943 2.06964,0.537444 3.86434,3.207119 25.95078,0.826308 25.95078,-2.797368 0,-0.683916 0.47889,-1.093483 1.0642,-0.91015 1.27847,0.400446 17.63183,-15.148381 17.07864,-16.238422 -0.21258,-0.418868 0.67817,-1.771431 1.97944,-3.005695 4.51313,-4.280728 5.94645,3.536047 3.2231,17.57745 -0.64004,3.3 -1.01687,7.05 -0.8374,8.333334 C 497.35412,62.95 496.82783,64 496.00512,64 c -0.82271,0 -1.12981,0.592232 -0.68245,1.316072 0.44735,0.72384 -0.41724,2.636977 -1.92132,4.251415 -1.50407,1.614439 -2.73468,3.684867 -2.73468,4.60095 0,0.916084 -3.9,5.662786 -8.66667,10.548228 -4.76667,4.885441 -8.66667,9.422781 -8.66667,10.082977 0,2.738053 -0.28576,3.332674 -2.97981,6.200358 -1.5501,1.65 -2.39994,3 -1.88853,3 0.5114,0 -0.053,1.5 -1.25427,3.33333 -1.20124,1.83334 -1.79142,3.33334 -1.3115,3.33334 0.47992,0 0.11311,0.81302 -0.81514,1.80671 -1.01646,1.08813 -5.14726,1.92867 -10.3859,2.11334 -13.07379,0.46087 -13.75432,0.58234 -17.51821,3.12693 -2.7654,1.86956 -4.2337,2.07319 -7.09767,0.98431 -6.26481,-2.38188 -16.28405,-2.19867 -19.09946,0.34924 -1.38938,1.25737 -3.1789,2.28613 -3.97672,2.28613 -0.79781,0 -1.65056,0.59256 -1.89501,1.3168 -0.26298,0.77916 -2.00561,0.50599 -4.26814,-0.66907 -10.33701,-5.36858 -34.1763,-5.69338 -34.1763,-0.46563 0,0.71974 -0.60424,0.93518 -1.34275,0.47875 -0.73852,-0.45643 -1.70271,0.10816 -2.14266,1.25464 -0.43994,1.14648 -1.52345,2.08451 -2.40779,2.08451 -8.34095,0 -14.24118,24.99068 -8.67773,36.75495 1.36424,2.88478 2.5008,6.31388 2.52568,7.62023 0.0249,1.30635 0.94525,2.72055 2.04525,3.14265 1.1,0.42211 2.04737,1.75328 2.10526,2.95816 0.0579,1.20487 0.37299,1.54538 0.70022,0.75668 0.64119,-1.54542 9.92194,-1.40026 16.91482,0.26456 2.35383,0.56039 4.75158,1.05276 5.32833,1.09417 0.57675,0.0414 1.47675,0.71633 2,1.49984 1.41938,2.12537 11.03098,1.91939 11.86509,-0.25427 0.38447,-1.00191 1.19929,-1.51248 1.81071,-1.1346 0.61142,0.37788 1.59855,-0.16784 2.19362,-1.21272 0.59507,-1.04487 2.58195,-2.10749 4.41528,-2.36137 2.8006,-0.38784 3.35478,-1.20744 3.46755,-5.12828 0.26562,-9.23587 2.9493,-11.30576 9.28012,-7.15765 2.51093,1.64523 3.09502,2.86429 2.39565,5 -1.25531,3.83346 -0.65845,12.0536 0.91503,12.6021 0.70124,0.24444 1.27498,1.27619 1.27498,2.29278 0,3.38284 7.72897,15.97825 9.0154,14.69182 0.34947,-0.34947 1.45504,0.18425 2.45684,1.18604 1.00179,1.0018 2.58036,1.66385 3.50793,1.47123 3.54831,-0.73682 7.06227,-2.6223 8.10178,-4.34714 0.59507,-0.9874 1.79507,-1.38645 2.66667,-0.88679 0.87159,0.49967 1.13992,0.41749 0.59628,-0.18261 -0.54363,-0.6001 -0.26993,-1.95682 0.60823,-3.01494 0.87816,-1.05812 1.74025,-2.61333 1.91576,-3.45601 1.66468,-7.99295 2.37776,-8.87184 5.79936,-7.14788 2.0811,1.04856 7.43407,1.54401 14.26035,1.31988 9.98841,-0.32796 11.1068,-0.10441 13,2.59851 1.13927,1.62654 2.0714,2.43085 2.0714,1.78735 0,-0.64349 1.08141,-0.19133 2.40313,1.00481 7.40472,6.70119 24.6017,1.55703 23.64223,-7.07213 -0.20524,-1.84582 0.90059,-5.15603 2.45741,-7.35603 2.18463,-3.0872 2.83057,-5.97774 2.83057,-12.66667 0,-9.50063 0.67857,-9.86422 13.53941,-7.25477 3.6892,0.74854 4.85794,0.18171 9.51064,-4.61257 2.9175,-3.0063 5.94496,-5.46599 6.72767,-5.46599 0.7827,0 1.90292,-0.79525 2.48936,-1.76722 2.74151,-4.5438 5.19653,-3.36448 5.36703,2.57817 0.0924,3.22064 -0.34703,5.85571 -0.97653,5.85571 -1.62128,0 -3.20103,5.35513 -2.8127,9.53467 0.28129,3.02755 -0.40138,3.77002 -4.75824,5.17509 -2.79765,0.90223 -5.68664,1.99475 -6.41998,2.42784 -0.73333,0.43308 -2.13378,0.9086 -3.1121,1.05672 -0.97833,0.14811 -2.60925,1.36499 -3.62427,2.70416 -1.01501,1.33917 -1.86457,1.98882 -1.88789,1.44367 -0.061,-1.42613 -6.36447,4.26667 -8.74178,7.89491 -1.87838,2.86677 -1.76612,3.32793 1.67642,6.88684 2.02929,2.09788 4.3657,3.57787 5.19201,3.28886 0.82632,-0.289 1.89078,0.48667 2.36548,1.72371 0.94121,2.45274 -2.81449,7.59324 -4.69746,6.42951 -0.62692,-0.38746 -0.83196,0.0979 -0.45565,1.07856 0.39668,1.03373 -0.31014,1.89485 -1.68193,2.0491 -4.20278,0.47258 -6.33111,1.02612 -8.03283,2.08921 -0.91666,0.57266 -2.26666,0.67038 -3,0.21715 C 512.6,202.88011 512,203.18011 512,204 c 0,0.81989 -0.56312,1.14268 -1.25139,0.71731 -0.68826,-0.42537 -1.87001,0.28922 -2.62612,1.58798 -0.7561,1.29876 -1.39298,1.91138 -1.41528,1.36138 -0.0223,-0.55 -1.14537,0.05 -2.49571,1.33333 -1.35034,1.28333 -2.21493,2.78333 -1.92131,3.33333 0.29362,0.55 -0.10155,1 -0.87817,1 -0.77661,0 -1.41202,0.85715 -1.41202,1.90477 0,1.04761 -0.91071,2.81547 -2.02381,3.92857 -1.11309,1.11309 -1.94204,2.50595 -1.8421,3.09523 0.0999,0.58929 0.0803,1.37143 -0.0437,1.7381 -3.26561,9.6604 0.17483,18.19289 12.57624,31.18985 7.57154,7.93515 8.57602,15.47682 2.06136,15.47682 -5.59168,0 -9.13602,3.83216 -8.91012,9.63366 0.22737,5.83913 1.52281,7.34844 6.8067,7.93041 5.14725,0.56692 9.22186,6.98104 6.04206,9.5112 -3.45358,2.748 -7.64665,12.049 -7.78599,17.27074 -0.16893,6.33071 -2.26855,10.32065 -5.431,10.32065 -2.74526,0 -5.90765,3.09759 -4.54922,4.45602 0.48252,0.48252 0.28661,0.87732 -0.43537,0.87732 -0.72197,0 -1.14769,2.09502 -0.94604,4.6556 0.31098,3.94869 -0.11922,4.77756 -2.83315,5.45871 -3.22894,0.81041 -3.47589,3.25402 -1.7631,17.44598 0.10357,0.85816 1.48925,2.25653 3.07928,3.10749 2.51073,1.3437 2.86202,2.58526 2.67088,9.43971 -0.12104,4.34088 0.31343,7.89251 0.9655,7.89251 0.65207,0 0.80873,0.60977 0.34812,1.35504 -0.4606,0.74528 1.30399,3.43468 3.92131,5.97645 2.61733,2.54177 4.75878,5.26741 4.75878,6.05697 0,0.78957 0.54875,1.09643 1.21945,0.68192 0.6707,-0.41452 1.47016,7e-5 1.77657,0.92131 0.99491,2.99117 26.94718,3.1329 31.37869,0.17136 1.99391,-1.33251 4.07529,-2.28931 4.62529,-2.12623 0.55,0.16308 1,-0.26063 1,-0.94159 0,-0.68095 0.76974,-2.03095 1.71055,-3 C 552.27217,383.75002 556,377.4083 556,374.79417 556,373.25738 556.63541,372 557.41202,372 c 0.77662,0 0.99975,-0.66708 0.49585,-1.4824 -0.5039,-0.81533 -0.26088,-1.8874 0.54003,-2.3824 0.80092,-0.49499 1.7403,-3.19042 2.08751,-5.98984 1.14407,-9.22402 4.67384,-7.86411 4.98465,1.92042 0.10368,3.26382 0.75573,6.65794 1.44901,7.54248 0.69328,0.88454 0.87344,2.23454 0.40036,3 C 566.89635,375.37372 567.18011,376 568,376 c 0.81989,0 1.18137,0.50053 0.80328,1.1123 -0.37809,0.61176 0.55469,3.62286 2.07285,6.69133 3.54027,7.15552 1.85771,12.22089 -4.9462,14.89053 -2.52813,0.99196 -4.5966,2.32699 -4.5966,2.96672 0,0.63974 -0.6,0.79234 -1.33333,0.33912 -0.73333,-0.45322 -1.33333,-0.18864 -1.33333,0.58798 0,0.77661 -0.9,1.41202 -2,1.41202 -1.1,0 -2,0.7 -2,1.55556 0,0.85555 -0.29824,1.25732 -0.66275,0.89281 -0.3645,-0.36451 -3.93849,2.53549 -7.94218,6.44444 -4.00369,3.90896 -7.81365,7.10719 -8.46658,7.10719 -1.04361,0 -3.02283,1.42804 -9.20555,6.64195 -0.88572,0.74693 -1.93572,1.35805 -2.33333,1.35805 -2.02796,0 -11.79741,12.48109 -10.65986,13.61864 0.35803,0.35804 -0.47262,3.1606 -1.84591,6.22792 -3.34427,7.46967 -11.92141,11.87976 -24.21718,12.45169 -3.47758,0.16176 -11.02363,6.04547 -9.96024,7.76607 0.33637,0.54427 -0.28496,1.33363 -1.38075,1.75412 -1.09579,0.42049 -1.99234,1.68336 -1.99234,2.80638 0,1.12302 -0.56271,2.04185 -1.25047,2.04185 -0.68776,0 -1.24264,1.05 -1.23308,2.33333 0.01,1.28333 -0.52823,4.43333 -1.1951,7 -0.70693,2.72082 -0.73201,8.00241 -0.0602,12.66667 1.88898,13.11403 2.0042,14.56021 1.35776,17.04222 -0.80843,3.10396 -4.13124,4.79534 -11.15422,5.67774 -3.13751,0.39421 -6.16642,1.44348 -6.7309,2.33172 -0.56448,0.88824 -1.03552,1.09152 -1.04675,0.45172 -0.0112,-0.63979 -0.89413,-0.43814 -1.96201,0.44812 -1.06787,0.88626 -2.44263,1.30172 -3.05501,0.92325 -1.92297,-1.18846 -16.38781,6.58686 -20.37491,10.95217 -2.09632,2.29518 -4.44532,4.17306 -5.21999,4.17306 -0.77467,0 -1.40849,0.55404 -1.40849,1.2312 0,0.67716 -2.16668,4.0697 -4.81483,7.53897 -2.64815,3.46927 -4.93079,7.09786 -5.07252,8.06354 -0.14173,0.96567 -0.67506,2.17314 -1.18517,2.68325 -0.51012,0.51011 -0.92748,1.68842 -0.92748,2.61846 0,0.93004 -0.69973,3.38004 -1.55494,5.44444 -0.85522,2.06441 -1.60522,4.75347 -1.66667,5.97569 -0.0615,1.22222 -0.56173,2.67222 -1.11173,3.22222 -0.55,0.55 -1,2.36272 -1,4.02825 0,2.20632 -0.72379,2.97372 -2.66666,2.82737 C 401.2,582.18958 400,581.77369 400,581.37585 Z M 327.33333,520.36641 C 331,519.54812 336.7,518.4797 340,517.99214 c 3.3,-0.48757 6.65521,-1.43005 7.45601,-2.09441 0.80081,-0.66436 1.79505,-0.86889 2.20943,-0.45451 0.41438,0.41437 2.60917,-0.20624 4.87732,-1.37915 2.26815,-1.1729 4.12391,-1.78322 4.12391,-1.35626 0,0.42696 1.65,-0.0792 3.66666,-1.1247 2.01667,-1.04554 6.12807,-3.16806 9.13646,-4.71671 3.00838,-1.54864 5.85838,-2.42712 6.33333,-1.95217 0.47495,0.47495 0.86355,0.21317 0.86355,-0.58173 0,-0.7949 2.7,-2.47642 6,-3.7367 3.3,-1.26028 6,-2.84532 6,-3.5223 0,-0.67698 0.53201,-0.90207 1.18225,-0.5002 0.65025,0.40187 1.92371,-0.16272 2.82993,-1.25465 0.90622,-1.09192 2.49303,-1.98532 3.52626,-1.98532 1.03322,0 2.22395,-0.9 2.64605,-2 0.42211,-1.1 1.49783,-2 2.39048,-2 0.89266,0 3.97847,-2.3899 6.85735,-5.31089 2.87889,-2.921 5.83434,-5.32729 6.56768,-5.34731 0.73333,-0.02 4.03333,-3.11214 7.33333,-6.87136 3.3,-3.75921 9.15,-10.11977 13,-14.13456 3.85,-4.01479 7.075,-7.83278 7.16667,-8.48442 0.0917,-0.65163 0.24166,-1.64887 0.33333,-2.21608 0.0917,-0.56721 1.49592,-2.45808 3.12056,-4.20193 1.62464,-1.74385 2.68125,-3.61178 2.34801,-4.15096 -0.33323,-0.53919 0.28091,-1.7163 1.36476,-2.61582 1.08385,-0.89952 1.64184,-2.1675 1.23997,-2.81774 -0.40187,-0.65024 -0.0599,-1.18226 0.76003,-1.18226 0.81989,0 1.11989,-0.6 0.66667,-1.33333 -0.45322,-0.73334 -0.0886,-1.33334 0.8102,-1.33334 0.89883,0 1.23214,-0.4021 0.74068,-0.89356 -0.49146,-0.49146 -0.0864,-2.14146 0.90019,-3.66667 0.98657,-1.5252 2.23625,-4.56709 2.77706,-6.75974 0.54081,-2.19266 1.55686,-4.34113 2.25788,-4.77439 0.70102,-0.43325 1.59244,-3.42476 1.98093,-6.64779 0.38848,-3.22304 1.26214,-6.52977 1.94146,-7.3483 0.67932,-0.81853 0.94572,-1.77765 0.592,-2.13137 -0.35372,-0.35372 0.19799,-3.89852 1.22604,-7.87732 2.08972,-8.08777 2.4901,-34.10938 0.68574,-44.56752 -0.63262,-3.66667 -1.4168,-9.06667 -1.74262,-12 -0.32582,-2.93334 -1.21524,-7.31772 -1.97648,-9.74307 -0.76125,-2.42535 -1.05192,-5.27535 -0.64593,-6.33333 0.40598,-1.05798 0.22396,-1.9248 -0.4045,-1.92625 -0.62846,-0.001 -1.27671,-1.9062 -1.44057,-4.23276 -0.16386,-2.32656 -0.8816,-4.59084 -1.59498,-5.03174 -0.71339,-0.44089 -1.66104,-2.88615 -2.10589,-5.43391 -0.44486,-2.54775 -1.34341,-4.82104 -1.99678,-5.05175 -0.65338,-0.23072 -0.85747,-1.28072 -0.45354,-2.33334 0.40393,-1.05262 0.17717,-1.91385 -0.5039,-1.91385 -1.309,0 -7.04699,-11.7466 -7.04699,-14.42634 0,-0.86552 -0.63541,-1.57366 -1.41202,-1.57366 -0.77662,0 -1.08006,-0.53713 -0.67433,-1.19362 0.40574,-0.65649 -0.19688,-1.55226 -1.33915,-1.99059 -1.14227,-0.43833 -1.70079,-1.40543 -1.24117,-2.14913 0.45963,-0.74369 -0.0259,-1.68281 -1.07906,-2.08692 -1.05311,-0.40412 -3.30908,-3.44579 -5.01327,-6.75926 -1.70418,-3.31347 -4.70863,-7.37933 -6.67656,-9.03523 -1.96792,-1.6559 -3.99041,-4.30999 -4.49442,-5.89799 -0.50402,-1.58799 -1.72202,-2.88726 -2.70667,-2.88726 -2.63091,0 -17.07584,-14.30783 -16.07684,-15.92425 0.50983,-0.82491 0.0168,-1.05806 -1.22755,-0.58055 -1.14375,0.4389 -3.72492,-0.30238 -5.73592,-1.64728 C 398.31203,223.16969 396.36667,222.03812 396,222 c -0.36667,-0.0381 -2.40677,-1.23176 -4.53355,-2.65252 -2.12679,-1.42077 -4.76673,-2.71529 -5.86653,-2.8767 -1.0998,-0.16142 -2.3597,-0.78338 -2.79978,-1.38213 -0.44008,-0.59876 -1.65802,-1.27461 -2.70654,-1.50189 -1.04851,-0.22729 -3.59442,-1.61523 -5.65756,-3.08432 -2.06315,-1.46908 -4.35527,-2.29771 -5.09361,-1.8414 C 368.60409,209.11736 368,208.8553 368,208.07869 c 0,-0.77661 -1.16459,-1.41202 -2.58798,-1.41202 -1.42338,0 -2.96484,-0.60979 -3.42546,-1.35509 -0.46062,-0.74529 -1.42231,-0.99364 -2.1371,-0.55188 -0.71478,0.44177 -2.17332,0.0781 -3.2412,-0.80817 -1.06788,-0.88626 -1.94159,-1.22408 -1.94159,-0.75072 0,0.47337 -1.35,0.002 -3,-1.04718 -1.65,-1.04932 -6.6,-2.3096 -11,-2.80063 -4.4,-0.49102 -10.7,-1.50281 -14,-2.24842 -7.16197,-1.61819 -14.13405,-2.18335 -29.33334,-2.37777 -11.7554,-0.15038 -12.91448,-0.0195 -22.36929,2.52645 -3.13073,0.84302 -6.22715,1.20217 -6.88092,0.79811 -0.65378,-0.40406 -1.39829,-0.10585 -1.65447,0.66268 -0.25618,0.76853 -1.95742,1.58341 -3.78055,1.81085 -6.43344,0.80259 -11.98143,2.4889 -11.98143,3.64177 0,0.64166 -0.45,1.03919 -1,0.88339 -0.55,-0.15579 -2.27111,0.4231 -3.82469,1.28643 -1.55358,0.86333 -3.20358,1.1908 -3.66667,0.72771 -0.46309,-0.46309 -0.84198,-0.10657 -0.84198,0.79227 0,0.89883 -0.55854,1.28904 -1.2412,0.86714 -0.68266,-0.42191 -1.62412,-0.14753 -2.09213,0.60972 -0.46801,0.75726 -1.40947,1.03164 -2.09213,0.60973 -0.68266,-0.42191 -1.2412,-0.14313 -1.2412,0.61951 0,0.76265 -1.5,1.7631 -3.33334,2.22324 C 229.5,213.24595 228,214.05738 228,214.58899 c 0,0.53161 -0.75,0.98008 -1.66667,0.9966 -2.38498,0.043 -11.66666,5.78126 -11.66666,7.21278 0,0.6609 -1.23541,1.20163 -2.74536,1.20163 -1.50995,0 -2.37453,0.6 -1.92131,1.33333 0.45322,0.73334 -0.11136,1.33334 -1.25464,1.33334 -1.14328,0 -2.07869,0.6 -2.07869,1.33333 0,0.73333 -0.86909,1.33333 -1.93131,1.33333 -2.43997,0 -8.98833,5.96926 -7.82479,7.1328 0.47697,0.47696 0.17474,0.8672 -0.67161,0.8672 -1.7833,0 -22.43954,19.97972 -20.71912,20.04055 0.63075,0.0223 0.0842,0.65917 -1.21455,1.41528 -1.29876,0.7561 -2.01335,1.93786 -1.58798,2.62612 0.42537,0.68826 0.17842,1.25139 -0.54877,1.25139 -0.7272,0 -1.7058,1.20871 -2.17468,2.68602 -0.46889,1.47732 -1.40932,2.34191 -2.08986,1.92132 -0.68053,-0.4206 -1.23733,-0.12931 -1.23733,0.6473 0,2.62141 -0.39525,3.40685 -2.53436,5.03629 -1.17277,0.89334 -1.67855,1.64334 -1.12395,1.66666 0.5546,0.0233 -0.7954,2.53243 -3,5.57579 -2.2046,3.04336 -4.00836,6.52336 -4.00836,7.73333 0,1.20998 -0.72,2.91995 -1.6,3.79995 -0.88,0.88 -1.13714,1.6 -0.57143,1.6 0.56572,0 0.0512,0.97737 -1.14335,2.17192 -1.19455,1.19456 -1.85624,2.99456 -1.47041,4 0.38582,1.00545 0.12033,1.82808 -0.58999,1.82808 -0.71032,0 -1.29149,1.8 -1.29149,4 0,2.2 -0.58117,4 -1.29148,4 -0.71032,0 -0.94807,0.89495 -0.52833,1.98876 0.41974,1.09382 -0.0991,2.31966 -1.15306,2.72409 -1.29514,0.49699 -1.88017,2.66146 -1.805,6.67814 0.0612,3.26855 -0.23381,5.94272 -0.65549,5.94259 -0.98185,-3.1e-4 -1.12474,3.86117 -1.13482,30.66642 -0.0111,29.53199 0.70511,35.72492 5.85967,50.66667 1.89737,5.5 3.70933,10.9 4.02658,12 1.63505,5.66929 4.43659,12.37242 5.49017,13.13613 1.49063,1.08051 3.85961,4.82852 6.86665,10.86387 1.27881,2.56667 3.07511,5.14648 3.99178,5.73292 0.91667,0.58644 1.66667,1.93644 1.66667,3 0,1.06356 0.61883,1.93375 1.37518,1.93375 0.75635,0 1.77445,1.05 2.26245,2.33333 0.488,1.28333 2.26917,3.42688 3.95815,4.76344 1.68899,1.33656 3.07088,3.05533 3.07088,3.81949 0,1.59141 14.66808,17.08374 16.17483,17.08374 0.54666,0 2.96467,1.8 5.37336,4 2.4087,2.2 4.87488,4 5.48042,4 0.60554,0 4.71426,2.4 9.13047,5.33333 4.41622,2.93333 8.58707,5.33333 9.26854,5.33333 0.68148,0 1.23905,0.49305 1.23905,1.09566 0,0.90023 12.39256,7.30886 14.66667,7.58465 0.36666,0.0445 1.86666,0.75043 3.33333,1.56879 1.46667,0.81837 3.12666,1.50163 3.68886,1.51836 2.13645,0.0636 9.70167,1.91403 10.97781,2.68518 1.42163,0.85907 4.27442,1.61209 7,1.84772 0.91666,0.0793 1.66666,0.63737 1.66666,1.24026 0,0.6029 1.35,1.0778 3,1.05534 1.65,-0.0225 5.4,0.46168 8.33334,1.07587 7.5025,1.5709 38.67746,1.14419 46.66666,-0.63875 z M 563.42424,320.75604 c -2.54721,-3.08606 -3.21462,-8.56715 -1.59385,-13.08937 1.48783,-4.15127 2.09843,-6.34285 2.01367,-7.22747 -0.0457,-0.47638 0.88339,-1.40696 2.06452,-2.06795 1.18113,-0.661 1.83833,-1.70206 1.46045,-2.31348 -1.02052,-1.65125 2.9134,-2.78253 5.84908,-1.68202 2.46865,0.92543 2.47616,1.11811 0.22371,5.7388 -1.28189,2.62967 -2.39944,5.62967 -2.48345,6.66667 -1.34446,16.5956 -2.93533,19.54647 -7.53413,13.97482 z"
       id="path1" />
  </g>
</svg>
